<svg width="60" height="60" viewBox="0 0 60 60" fill="none" xmlns="http://www.w3.org/2000/svg">
<path d="M22.3968 0C18.2724 0 14.8968 3.3756 14.8968 7.5C14.8968 11.6244 18.2724 15 22.3968 15C23.1864 15 23.9484 14.8752 24.6648 14.646L28.6104 23.0322C23.7354 26.1036 21.1908 32.106 22.758 37.9542C23.0327 38.9772 23.4273 39.9643 23.9334 40.8948L13.2834 47.7372L13.2822 47.7366C11.9034 46.068 9.8202 45 7.5 45C3.3756 45 0 48.3756 0 52.5C0 56.6244 3.3756 60 7.5 60C11.6244 60 15 56.6244 15 52.5C15 51.5538 14.8152 50.6496 14.4912 49.8138L25.2624 42.894C28.5132 46.9422 33.9648 48.927 39.2916 47.4996C46.4796 45.5736 50.7636 38.1534 48.8376 30.9654C48.2493 28.7612 47.1083 26.7436 45.5226 25.1034L51.4488 17.4186C52.2453 17.8 53.1169 17.9987 54 18C57.2958 18 60 15.2958 60 12C60 8.7042 57.2958 6 54 6C50.7042 6 48 8.7042 48 12C48 13.5234 48.582 14.9154 49.5294 15.9774L43.7052 23.529C40.5252 21.2334 36.3774 20.328 32.304 21.4194C31.7688 21.5634 31.2516 21.7404 30.75 21.942L26.802 13.5504C28.6716 12.1824 29.8968 9.9804 29.8968 7.5C29.8968 3.3756 26.5212 0 22.3968 0ZM22.3968 3C24.9 3 26.8968 4.9968 26.8968 7.5C26.8968 10.0032 24.9 12 22.3968 12C21.805 12.003 21.2185 11.8887 20.6712 11.6636C20.1238 11.4385 19.6266 11.1072 19.2081 10.6887C18.7896 10.2703 18.4583 9.77297 18.2332 9.22564C18.0081 8.67831 17.8938 8.09179 17.8968 7.5C17.8968 4.9968 19.8936 3 22.3968 3ZM54 9C55.6746 9 57 10.3254 57 12C57 13.6746 55.6746 15 54 15C52.3254 15 51 13.6746 51 12C51 10.3254 52.3254 9 54 9ZM36.2718 22.467C41.3742 22.6692 45.9768 26.1414 47.3802 31.3242C47.3836 31.3341 47.3866 31.3441 47.3892 31.3542C47.3922 31.3661 47.3946 31.3781 47.3964 31.3902C49.0878 37.776 45.2898 44.34 38.904 46.0506C32.5062 47.7648 25.9218 43.9638 24.2076 37.5666C22.4934 31.1688 26.2956 24.5826 32.6928 22.8684C33.8587 22.5548 35.0654 22.4193 36.2718 22.4664V22.467ZM36.0048 23.1822C35.6264 23.1756 35.2479 23.1884 34.8708 23.2206C35.0868 23.244 35.2392 23.3106 34.9524 23.427L34.6932 23.4108C34.4634 23.3496 34.3908 23.3022 34.404 23.2686C33.8964 23.3328 33.387 23.4294 32.8794 23.565L32.7984 23.589C33.0218 23.5486 33.2471 23.5196 33.4734 23.502C33.6258 24.009 33.9954 24.9324 32.988 25.1658C32.1792 25.4322 31.9002 27.507 31.077 26.2842C30.9456 25.5786 31.761 23.8686 30.4608 24.7596C30.273 25.2828 30.5724 26.0814 29.9802 26.1366C29.9736 26.9172 29.2914 26.6358 29.094 26.3508C28.8648 26.583 29.448 26.8656 29.202 27.165C29.9244 26.337 29.4732 27.8874 30.069 28.0956C29.712 28.6866 30.8892 29.6376 29.7936 29.6112C28.8186 29.7126 30.204 28.2348 29.19 29.0346C28.5138 29.3886 28.662 29.79 29.2302 29.754C28.8684 30.3372 28.2594 30.5268 27.9174 30.3996C27.2895 31.0817 26.7587 31.8471 26.34 32.6742C25.4634 32.9538 26.1462 34.6998 25.6698 34.6314C25.4754 34.0926 25.425 33.1518 24.8928 33.4326C24.7374 33.4236 24.6246 33.5202 24.5448 33.6762C24.5047 34.2553 24.51 34.8367 24.5604 35.415C24.5952 35.4972 24.6354 35.565 24.6798 35.61C25.197 34.4742 24.9108 36.267 25.1802 36.5298C25.8108 37.0914 25.395 38.508 26.5182 38.4588C26.6988 37.6302 27.225 38.196 27.285 38.0862C27.6138 37.9326 28.089 38.7198 28.6782 38.4384C29.376 38.1708 29.3982 39.678 30.4194 39.5724C31.7088 39.5982 32.0154 41.2344 33.3858 41.0802C34.2864 41.3274 36.5226 40.9422 36.1746 42.3786C35.2668 43.0722 36.4188 44.7552 34.8186 44.7948C34.5132 44.979 34.4598 45.3516 34.2738 45.6408C35.7168 45.8376 37.2216 45.7572 38.7174 45.3564C41.5873 44.5922 44.0381 42.7233 45.5346 40.158C45.5958 39.4746 45.5304 38.7492 45.8166 38.1138C45.8376 37.1034 44.6982 36.6918 45.0162 35.6766C44.5542 35.862 43.5546 35.5182 43.2342 36.4374C42.6318 36.6072 42.2328 37.4574 41.5746 37.2456C40.71 37.0026 39.7152 36.7146 39.2616 35.8662C39.1632 35.1366 38.7036 34.2906 38.5956 33.6186C38.6262 32.3976 39.3432 31.4766 39.2298 30.3084C39.2886 30.2202 39.8034 29.5374 39.825 29.5092C40.563 29.091 41.3004 27.5286 42.1158 28.6782C42.309 28.752 43.5354 29.0064 43.323 28.6032C43.1694 27.9252 45.057 27.8094 43.9032 27.1782C43.7928 27.1476 43.4022 27.1392 43.1802 27.2706C43.0878 27.3204 42.789 27.9048 42.2562 27.3702C41.5596 27 42.6 28.7718 41.586 27.984C42.288 27.5214 40.299 27.0942 40.851 27.504C41.7306 28.3698 40.4226 27.9978 40.437 27.2352C39.4302 27.3768 40.3932 29.0814 39.5538 29.6082C39.5598 29.6076 39.5658 29.604 39.5724 29.6034L39.4188 29.6664L39.1788 29.7558C38.8914 29.586 38.226 29.733 38.2428 29.0148C37.635 28.4076 37.9728 28.0236 38.7252 27.8946C39.339 27.2226 36.9054 27.2646 38.3046 26.6244C37.6746 26.8374 37.4124 26.934 37.1172 26.1648C37.4832 27.1188 36.0504 26.847 36.5736 26.0808C36.786 25.8372 35.8362 25.71 36.522 25.3968C36.996 25.242 38.4648 26.937 38.3256 25.722C38.6238 25.53 37.8246 25.074 37.9668 25.0002C37.1886 25.4994 36.5406 24.0726 36.384 23.5152C36.6401 23.4596 36.8887 23.3736 37.1244 23.259C36.7529 23.2149 36.3794 23.1895 36.0054 23.1828L36.0048 23.1822ZM37.602 23.8626C37.5745 23.8591 37.5467 23.8608 37.5198 23.8674C37.4118 23.9058 37.8474 24.099 37.602 23.8626ZM37.6362 24.2004C37.4412 24.234 38.5272 24.6324 38.0112 24.2496C37.794 24.2046 37.6812 24.1926 37.6362 24.2004ZM38.556 24.519C38.46 24.5454 38.496 24.6438 38.8524 24.8214C39.0402 25.185 38.8896 25.4244 39.2274 24.9612C39.2364 24.6342 38.715 24.4758 38.5554 24.519H38.556ZM34.4532 24.9108C34.827 24.9174 35.1054 25.086 34.3872 25.377C34.2264 25.419 34.0428 25.4388 33.8904 25.3548C33.7458 25.152 33.8754 25.023 34.0806 24.9588C34.1934 24.9228 34.3284 24.9084 34.4526 24.9108H34.4532ZM36.5712 25.0488C36.618 25.0488 36.8742 25.3452 36.6198 25.1754C36.5628 25.0818 36.555 25.0488 36.5706 25.0488H36.5712ZM35.8254 25.0686C35.8734 25.0302 36.0558 25.3104 35.8194 25.1556C35.8098 25.1034 35.814 25.0776 35.8254 25.0686ZM41.8056 25.5408C41.634 25.6092 42.5214 26.6466 42.5124 26.0688C43.2024 25.7646 42.2082 25.3728 42.1182 25.6806C41.9418 25.5612 41.8452 25.5252 41.8056 25.5408ZM29.385 25.746C29.373 25.74 29.3568 25.74 29.3346 25.7484C29.2746 25.7724 29.175 25.857 29.0298 26.0346C28.83 26.1918 28.5396 26.9088 28.95 26.3262C29.2812 26.1756 29.4636 25.7922 29.385 25.746ZM28.2234 26.5008C28.1274 26.5188 28.0014 26.598 27.8376 26.763C27.2202 26.9862 27.5586 28.386 27.5544 28.2972C27.708 28.1226 27.7716 27.6966 28.0194 27.654C28.4586 27.486 28.6374 26.421 28.2234 26.5008ZM40.7604 26.7564C40.7521 26.7567 40.7439 26.7588 40.7364 26.7624C40.7034 26.7828 40.812 26.8524 41.175 26.9976C41.2746 26.9364 41.943 27.2916 41.7432 27.0456C41.4852 26.898 40.896 26.7432 40.7604 26.7564ZM42.4404 26.8662C42.3876 26.9082 42.7698 27.2274 42.6726 26.9496C42.5244 26.8698 42.4584 26.8524 42.4404 26.8662ZM43.2774 27.4806C43.4208 27.516 43.5624 27.819 43.1322 27.7392C43.128 27.5778 43.167 27.5052 43.2174 27.4842C43.2365 27.4765 43.2575 27.4753 43.2774 27.4806ZM40.2024 28.0416C40.3404 27.9804 40.4322 28.6668 40.0644 28.4142C40.1052 28.1652 40.1562 28.062 40.2024 28.0422V28.0416ZM28.5948 28.9908C28.509 29.013 28.6428 29.1948 28.7628 29.0412C28.6764 28.995 28.6236 28.9836 28.5948 28.9908ZM26.3694 29.2944C26.229 29.3148 26.5158 29.9058 26.5434 29.3916C26.4564 29.3154 26.4018 29.2896 26.3694 29.2944ZM26.5392 29.865C26.4402 29.9172 26.55 30.5808 26.5956 29.8866C26.5716 29.8626 26.5536 29.8578 26.5392 29.865ZM34.9194 30.3972C35.0934 30.3672 35.1354 30.6498 34.7142 30.558C34.7892 30.4524 34.8618 30.4074 34.9194 30.3972ZM35.4774 30.435C35.5536 30.4422 35.4834 30.7272 35.3496 30.5472C35.4096 30.4608 35.4516 30.432 35.4774 30.435ZM26.4504 30.597C26.3298 30.6042 26.2104 31.0542 26.5284 30.6774C26.5062 30.6162 26.478 30.5946 26.4504 30.5964V30.597ZM37.665 31.1178C37.7322 31.1508 37.7466 31.4022 37.5666 31.2294C37.5894 31.1634 37.6128 31.1304 37.6338 31.119C37.6385 31.1162 37.6438 31.1147 37.6493 31.1145C37.6547 31.1143 37.6601 31.1154 37.665 31.1178ZM38.604 31.7754C38.709 31.7472 38.907 32.1498 38.5758 32.1588C38.5278 31.89 38.556 31.788 38.604 31.7754ZM38.121 32.1588C38.382 32.1558 38.5902 32.2518 38.079 32.4072L37.848 32.469L37.8024 32.4612C37.662 32.3256 37.734 32.2404 37.8684 32.196C37.9416 32.172 38.034 32.16 38.121 32.1588ZM26.031 34.335C26.094 34.317 26.3622 34.7532 26.0634 34.545C26.0106 34.3968 26.0094 34.341 26.031 34.335ZM26.007 34.7508C26.0742 34.7448 26.205 35.3598 25.9782 35.0226C25.9704 34.8246 25.9854 34.7526 26.0076 34.7508H26.007ZM25.4124 35.1198C25.4784 35.1096 25.5744 35.109 25.7088 35.121C26.1102 35.703 26.7912 35.7444 26.6904 36.075C27.1884 36.1338 28.0734 36.8112 26.91 36.7134C26.1288 36.6186 27.0102 36.1092 26.1162 36.1074C25.9902 35.766 24.9498 35.1942 25.4124 35.1198ZM26.3862 35.2518C26.4354 35.2518 26.5422 35.3586 26.5404 35.5242L26.4786 35.5044C26.367 35.3574 26.3484 35.2818 26.3682 35.2596C26.3705 35.2572 26.3733 35.2553 26.3764 35.2541C26.3795 35.2528 26.3829 35.2522 26.3862 35.2524V35.2518ZM37.6908 35.6376C37.806 35.6052 37.857 35.9664 37.6044 35.7354C37.6344 35.6736 37.6644 35.6454 37.6908 35.6376ZM37.0302 35.6616C37.161 35.6412 37.6344 35.7954 37.1838 35.8254C36.9828 35.7156 36.9708 35.6706 37.0302 35.6616ZM37.7226 35.9616C37.8234 35.9826 37.7586 36.2616 37.5186 36.1104C37.5804 36.0306 37.6308 35.988 37.6698 35.9706C37.686 35.9621 37.7045 35.959 37.7226 35.9616ZM37.3818 36.0948C37.4484 36.0846 37.4958 36.4104 37.3158 36.2484C37.335 36.1398 37.359 36.0984 37.3818 36.0948ZM25.9722 36.2892C26.1138 36.2814 26.6178 36.6084 26.1306 36.573C25.9182 36.3654 25.908 36.2928 25.9722 36.2892ZM44.7354 36.4392C44.802 36.429 44.8482 36.7536 44.6682 36.5916C44.6874 36.483 44.7126 36.4428 44.7354 36.4392ZM27.7434 36.5274C27.9096 36.5568 28.1124 36.8472 27.6162 36.7842C27.5886 36.627 27.6222 36.555 27.6762 36.5334C27.6974 36.5251 27.7205 36.5231 27.7428 36.5274H27.7434ZM24.7374 36.6576C24.7854 36.8982 24.8376 37.14 24.9024 37.3806C25.6565 40.2094 27.4845 42.6324 29.9976 44.1342C29.1678 43.3884 28.1328 42.8862 27.4722 41.952C26.3922 41.139 26.7498 39.8592 26.3016 38.8302C26.1024 38.2752 26.2056 39.2202 25.8234 38.55C25.3788 38.0382 25.071 37.2858 24.7374 36.6576ZM28.7166 37.1604C28.7916 37.1688 29.127 38.1738 28.8162 37.7388L28.7616 37.5738C28.695 37.2648 28.692 37.1574 28.7166 37.1598V37.1604ZM7.5 48C10.0032 48 12 49.9968 12 52.5C12 55.0032 10.0032 57 7.5 57C6.90821 57.003 6.32169 56.8887 5.77436 56.6636C5.22703 56.4385 4.72975 56.1072 4.31128 55.6887C3.89282 55.2703 3.56146 54.773 3.33639 54.2256C3.11131 53.6783 2.99698 53.0918 3 52.5C3 49.9968 4.9968 48 7.5 48Z" fill="#F8F8F8"/>
</svg>
