<svg width="311" height="299" viewBox="0 0 311 299" fill="none" xmlns="http://www.w3.org/2000/svg">
<path d="M192.894 218.075H118.224C119.964 218.075 121.368 235.191 121.368 256.275C121.368 277.374 119.969 294.491 118.224 294.491H192.894C191.158 294.491 189.75 277.374 189.75 256.275C189.759 235.191 191.158 218.075 192.894 218.075Z" fill="#BFBEBE"/>
<path d="M144.373 218.075H118.228C119.969 218.075 121.373 235.191 121.373 256.275C121.373 277.374 119.974 294.491 118.228 294.491H144.373C146.113 294.491 147.517 277.374 147.517 256.275C147.517 235.191 146.113 218.075 144.373 218.075Z" fill="#AEAEAE"/>
<path d="M310.947 217.636C310.947 237.365 296.078 253.35 277.768 253.35H33.3841C15.0541 253.35 0.190186 237.365 0.190186 217.636V36.6762C0.190186 16.9812 15.0541 0.986328 33.3841 0.986328H277.768C296.078 0.986328 310.947 16.9666 310.947 36.6762V217.636Z" fill="#D1D2D2"/>
<path d="M63.0338 217.636V36.6762C63.0338 16.9812 77.8977 0.986328 96.2228 0.986328H33.3645C15.0345 0.986328 0.170654 16.9666 0.170654 36.6762V217.636C0.170654 237.365 15.0345 253.35 33.3645 253.35H96.2228C77.8977 253.35 63.0338 237.36 63.0338 217.631" fill="#C6C5C5"/>
<path d="M310.948 167.087C310.948 186.782 296.079 202.772 277.768 202.772H33.3847C15.0547 202.772 0.190796 186.797 0.190796 167.087V36.5443C0.190796 16.8152 15.0547 0.834961 33.3847 0.834961H277.768C296.079 0.834961 310.948 16.8152 310.948 36.5443V167.087Z" fill="#243438"/>
<path d="M0.175476 157.869H310.952V213.283H0.175476V157.869Z" fill="#243438"/>
<path d="M286.406 17.4395H24.7113C22.5517 17.4395 20.7528 18.6338 20.7528 20.072V190.166C20.7528 191.609 22.5517 192.798 24.7113 192.798H286.406C287.581 192.798 288.473 192.549 289.122 192.111L289.219 192.013C289.219 192.013 289.297 191.955 289.317 191.901C289.636 191.735 289.905 191.487 290.097 191.181C290.288 190.876 290.394 190.526 290.404 190.166V82.0381V20.1061C290.384 18.668 288.566 17.4736 286.406 17.4736" fill="#58C5E8"/>
<path d="M159.403 131.1C203.161 157.318 245.91 175.17 290.384 185.968V20.072C290.384 18.6338 288.566 17.4395 286.406 17.4395H46.2637C70.9312 63.9226 113.383 103.532 159.412 131.1" fill="#28A6DE"/>
<path d="M159.754 158.941C106.957 130.184 54.0978 90.3501 20.7528 41.1614V190.161C20.7528 191.604 22.5517 192.793 24.7113 192.793H238.3C212.209 184.384 186.191 173.362 159.763 158.961" fill="#28A6DE"/>
<path d="M213.14 292.794C213.14 296.216 211.492 299 209.469 299H101.683C99.6401 299 97.9923 296.216 97.9923 292.794C97.9923 289.367 99.6401 286.588 101.683 286.588H209.469C211.492 286.574 213.14 289.362 213.14 292.794Z" fill="#D1D2D2"/>
<path d="M136.193 292.794C136.193 289.367 137.841 286.588 139.864 286.588H100.254C98.2263 286.588 96.5834 289.367 96.5834 292.794C96.5834 296.216 98.2312 299 100.254 299H139.864C137.841 299 136.193 296.216 136.193 292.794Z" fill="#C6C5C5"/>
<path d="M167.359 223.998C166.881 223.54 166.184 223.408 165.233 223.681L159.759 225.08C158.052 225.544 157.19 226.67 157.19 228.483L157.17 234.338C157.17 235.186 157.36 235.815 157.74 236.176C157.901 236.33 158.092 236.45 158.3 236.528C158.509 236.606 158.732 236.641 158.954 236.629C159.247 236.629 159.52 236.566 159.871 236.498L165.341 235.103C167.047 234.645 167.915 233.514 167.934 231.676V225.841C167.919 224.978 167.729 224.359 167.359 223.998ZM164.453 230.662C164.453 231.311 164.151 231.71 163.532 231.881L161.592 232.388C161.486 232.409 161.378 232.422 161.27 232.427C161.11 232.43 160.955 232.377 160.831 232.276C160.704 232.154 160.621 231.925 160.646 231.593V229.512C160.646 228.863 160.948 228.464 161.557 228.298L163.522 227.791C163.858 227.713 164.112 227.752 164.258 227.903C164.405 228.035 164.468 228.254 164.468 228.566V230.667H164.453V230.662Z" fill="#243438"/>
<path d="M153.953 228.459C153.953 226.645 153.099 225.514 151.379 225.056L145.909 223.657C144.963 223.384 144.261 223.53 143.808 223.974C143.408 224.334 143.218 224.953 143.218 225.811L143.237 231.637C143.257 233.475 144.11 234.611 145.811 235.064L151.301 236.463C151.622 236.561 151.925 236.595 152.188 236.595C152.411 236.607 152.634 236.572 152.843 236.494C153.052 236.415 153.242 236.293 153.402 236.137C153.782 235.781 153.972 235.157 153.972 234.299L153.953 228.459ZM150.316 232.251C150.218 232.354 150.072 232.402 149.882 232.402C149.882 232.402 149.672 232.383 149.56 232.363L147.61 231.856C147.006 231.686 146.684 231.286 146.684 230.638V228.537C146.684 228.234 146.762 228.01 146.889 227.874C147.04 227.722 147.288 227.683 147.644 227.761L149.594 228.268C150.199 228.434 150.521 228.834 150.521 229.482V231.583C150.521 231.886 150.521 232.115 150.316 232.251Z" fill="#243438"/>
<path d="M157.799 243.469C157.897 243.469 157.989 243.449 158.121 243.406L160.071 242.903C160.675 242.762 160.997 242.343 160.997 241.675V239.598C161.005 239.36 160.939 239.125 160.807 238.925C160.636 238.76 160.368 238.74 160.051 238.823L158.082 239.325C157.477 239.476 157.17 239.891 157.17 240.554L157.151 242.645C157.151 242.947 157.229 243.152 157.36 243.284C157.458 243.41 157.609 243.469 157.799 243.469Z" fill="#243438"/>
<path d="M153.348 243.469C153.231 243.468 153.116 243.446 153.007 243.406L151.057 242.903C150.452 242.762 150.145 242.343 150.145 241.675L150.126 239.598C150.126 239.291 150.204 239.086 150.335 238.925C150.486 238.76 150.75 238.74 151.071 238.823L153.06 239.325C153.65 239.476 153.972 239.891 153.972 240.554V242.645C153.972 242.947 153.894 243.152 153.782 243.284C153.728 243.345 153.661 243.393 153.586 243.425C153.511 243.457 153.429 243.472 153.348 243.469Z" fill="#243438"/>
<path d="M235.598 112.726C237.214 112.786 238.826 112.52 240.337 111.943C241.848 111.367 243.226 110.491 244.391 109.369C245.556 108.247 246.482 106.902 247.115 105.414C247.748 103.926 248.074 102.325 248.074 100.708C248.074 99.0908 247.748 97.4903 247.115 96.0022C246.482 94.514 245.556 93.1687 244.391 92.0467C243.226 90.9248 241.848 90.0492 240.337 89.4725C238.826 88.8957 237.214 88.6295 235.598 88.6898C235.339 88.6898 235.096 88.7401 234.828 88.7568L230.791 72.8443C232.126 71.8425 233.236 70.5728 234.052 69.1167C234.867 67.6605 235.369 66.0501 235.525 64.3886C235.682 62.7271 235.489 61.0512 234.96 59.4685C234.431 57.8858 233.577 56.4312 232.452 55.1979C231.328 53.9646 229.959 52.9799 228.431 52.3069C226.904 51.6339 225.253 51.2875 223.585 51.2899C221.916 51.2923 220.266 51.6434 218.741 52.3208C217.215 52.9982 215.849 53.9868 214.728 55.2233L173.774 36.187C174.202 34.97 174.428 33.6913 174.444 32.4015C174.487 30.796 174.207 29.1982 173.622 27.7026C173.037 26.2069 172.158 24.8436 171.037 23.693C169.917 22.5425 168.577 21.6281 167.097 21.0037C165.618 20.3793 164.028 20.0576 162.422 20.0576C160.816 20.0576 159.226 20.3793 157.746 21.0037C156.267 21.6281 154.927 22.5425 153.806 23.693C152.686 24.8436 151.807 26.2069 151.222 27.7026C150.637 29.1982 150.357 30.796 150.4 32.4015C150.42 32.811 150.462 33.2191 150.525 33.6242L124.445 41.6223C122.644 39.3846 120.099 37.8687 117.274 37.3511C114.448 36.8334 111.531 37.3485 109.054 38.8024C106.576 40.2563 104.704 42.5522 103.778 45.2713C102.853 47.9905 102.935 50.9518 104.01 53.6153L79.4717 75.5243C77.6208 74.3909 75.4949 73.7855 73.3245 73.774C70.4515 73.7601 67.6692 74.7788 65.4844 76.6444C63.2996 78.51 61.8577 81.0984 61.4213 83.938C60.9849 86.7776 61.5831 89.6795 63.1069 92.1151C64.6307 94.5506 66.9787 96.3577 69.7232 97.2072L68.0985 112.835C66.267 113.089 64.5191 113.763 62.9913 114.804C61.4634 115.845 60.197 117.226 59.2911 118.838C58.3851 120.45 57.864 122.249 57.7686 124.095C57.6732 125.942 58.006 127.786 58.7411 129.482C59.4761 131.179 60.5935 132.682 62.0059 133.876C63.4182 135.069 65.0874 135.919 66.8829 136.361C68.6784 136.802 70.5517 136.822 72.3563 136.42C74.1609 136.017 75.848 135.203 77.2858 134.04L85.3761 137.6L85.351 137.851C85.363 140.846 86.4935 143.728 88.5208 145.933C90.5481 148.137 93.3259 149.505 96.3093 149.767C99.2927 150.029 102.266 149.167 104.647 147.35C107.028 145.533 108.644 142.892 109.178 139.945H118.424C119.15 142.558 120.741 144.847 122.937 146.439C125.133 148.03 127.804 148.828 130.513 148.704C133.222 148.579 135.809 147.539 137.85 145.753C139.891 143.967 141.265 141.541 141.748 138.873L167.769 139.727C169.674 141.37 172.056 142.359 174.565 142.548C177.073 142.736 179.576 142.114 181.705 140.774C196.395 148.789 208.785 160.435 217.693 174.601C217.106 176.028 216.801 177.555 216.797 179.098C216.785 181.153 217.301 183.177 218.294 184.976C219.287 186.776 220.725 188.291 222.47 189.376C224.215 190.462 226.209 191.082 228.263 191.178C230.316 191.274 232.359 190.842 234.198 189.923C236.036 189.005 237.609 187.63 238.765 185.931C239.922 184.232 240.623 182.265 240.803 180.218C240.983 178.17 240.635 176.111 239.793 174.236C238.951 172.361 237.642 170.734 235.992 169.509C231.785 163.387 228.83 156.493 227.299 149.224C229.361 148.57 231.205 147.366 232.635 145.742C234.064 144.118 235.024 142.135 235.411 140.007C235.799 137.878 235.599 135.684 234.834 133.661C234.068 131.638 232.766 129.861 231.068 128.521L235.59 112.726H235.598ZM240.33 100.708C240.329 101.641 240.05 102.554 239.531 103.329C239.011 104.105 238.273 104.709 237.411 105.065C236.548 105.422 235.599 105.514 234.683 105.332C233.768 105.149 232.927 104.7 232.267 104.04C231.607 103.38 231.157 102.539 230.975 101.623C230.792 100.708 230.885 99.7586 231.241 98.8958C231.598 98.0331 232.202 97.2953 232.977 96.7756C233.753 96.256 234.665 95.9777 235.598 95.9761C236.853 95.9761 238.057 96.4746 238.944 97.362C239.832 98.2494 240.33 99.453 240.33 100.708ZM230.749 89.72C228.787 90.5967 227.096 91.984 225.853 93.737C224.61 95.49 223.86 97.5445 223.681 99.6862H214.292C214.155 98.0499 213.682 96.4595 212.902 95.0142C212.122 93.569 211.053 92.2999 209.762 91.2861L221.545 75.0972C223.35 75.4612 225.218 75.3457 226.964 74.7622L230.749 89.72ZM211.705 136.344L187.434 130.129C187.335 127.421 186.316 124.827 184.544 122.776L194.343 109.585C195.847 111.002 197.704 111.987 199.72 112.44C201.735 112.892 203.835 112.794 205.8 112.157L216.286 128.354C215.032 129.317 213.982 130.519 213.195 131.89C212.409 133.261 211.902 134.775 211.705 136.344ZM124.102 57.0993L158.28 74.9883C157.55 77.1117 157.501 79.4098 158.138 81.5627L136.196 92.8438C135.079 91.5438 133.695 90.4993 132.139 89.7811C130.582 89.0629 128.89 88.6879 127.176 88.6815C127.075 88.6815 126.983 88.7066 126.883 88.715L118.985 60.4912C120.956 59.8244 122.72 58.6554 124.102 57.0993ZM217.475 73.5897L206.026 89.3012C204.095 88.6341 202.021 88.4935 200.018 88.8939C198.015 89.2943 196.154 90.2212 194.628 91.5792L181.303 81.5292C181.761 80.0957 181.862 78.5718 181.596 77.0905L212.643 68.213C213.669 70.451 215.355 72.3214 217.475 73.573V73.5897ZM202.366 105.431C201.433 105.43 200.52 105.151 199.745 104.631C198.969 104.111 198.365 103.373 198.008 102.51C197.652 101.647 197.56 100.697 197.743 99.7813C197.926 98.8656 198.377 98.0247 199.038 97.365C199.699 96.7052 200.54 96.2562 201.456 96.0746C202.372 95.893 203.322 95.9871 204.184 96.3448C205.047 96.7026 205.784 97.308 206.303 98.0846C206.822 98.8612 207.098 99.7741 207.098 100.708C207.096 101.961 206.597 103.163 205.709 104.048C204.822 104.934 203.62 105.431 202.366 105.431ZM169.712 83.2377C168.779 83.236 167.867 82.9578 167.091 82.4382C166.316 81.9185 165.712 81.1807 165.355 80.3179C164.999 79.4552 164.906 78.5061 165.088 77.5907C165.271 76.6752 165.721 75.8343 166.381 75.1742C167.041 74.5141 167.882 74.0644 168.797 73.8819C169.713 73.6994 170.662 73.7922 171.524 74.1487C172.387 74.5051 173.125 75.1093 173.645 75.8848C174.164 76.6602 174.443 77.5723 174.444 78.5058C174.442 79.7594 173.942 80.9608 173.055 81.8464C172.168 82.732 170.966 83.2293 169.712 83.2293V83.2377ZM127.167 95.9761C128.101 95.9761 129.014 96.2529 129.791 96.7716C130.567 97.2902 131.173 98.0274 131.53 98.89C131.888 99.7527 131.982 100.702 131.801 101.618C131.619 102.534 131.17 103.376 130.51 104.037C129.851 104.698 129.01 105.148 128.094 105.331C127.178 105.515 126.229 105.422 125.366 105.066C124.502 104.71 123.764 104.106 123.244 103.33C122.724 102.554 122.446 101.642 122.444 100.708C122.444 99.453 122.942 98.2494 123.83 97.362C124.717 96.4746 125.921 95.9761 127.176 95.9761H127.167ZM139.194 100.708C139.186 99.243 138.908 97.7922 138.373 96.4283L159.88 85.3733C160.985 86.9607 162.456 88.2579 164.169 89.1546C165.882 90.0513 167.787 90.5211 169.721 90.524L169.922 90.5072L166.287 121.16L133.574 125.297C132.919 125.088 132.246 124.937 131.564 124.845L129.077 112.533C131.892 112.083 134.455 110.646 136.308 108.479C138.161 106.313 139.184 103.559 139.194 100.708ZM129.956 131.972C130.89 131.973 131.802 132.252 132.577 132.771C133.353 133.291 133.957 134.029 134.313 134.892C134.67 135.754 134.763 136.703 134.58 137.619C134.398 138.534 133.948 139.375 133.288 140.035C132.628 140.695 131.787 141.145 130.871 141.328C129.956 141.51 129.007 141.417 128.144 141.061C127.281 140.704 126.544 140.1 126.024 139.325C125.504 138.549 125.226 137.637 125.224 136.704C125.224 135.449 125.723 134.245 126.61 133.358C127.498 132.47 128.701 131.972 129.956 131.972ZM138.968 128.831L164.537 125.607C163.821 127.144 163.446 128.818 163.439 130.514C163.432 132.21 163.792 133.887 164.495 135.431L141.773 134.694C141.399 132.517 140.428 130.488 138.968 128.831ZM174.252 89.6195C176.369 88.7513 178.196 87.299 179.519 85.432L191.965 94.812C190.956 96.5181 190.403 98.455 190.359 100.436C190.315 102.418 190.782 104.377 191.713 106.127L181.303 120.113C179.708 119.189 177.917 118.655 176.076 118.553C174.235 118.451 172.397 118.785 170.709 119.527L174.252 89.6195ZM223.58 58.565C224.515 58.565 225.428 58.842 226.205 59.361C226.981 59.88 227.587 60.6177 227.944 61.4809C228.302 62.344 228.395 63.2937 228.213 64.21C228.031 65.1262 227.581 65.9679 226.92 66.6285C226.26 67.2891 225.418 67.7389 224.502 67.9212C223.586 68.1035 222.636 68.0099 221.773 67.6524C220.91 67.2949 220.172 66.6895 219.653 65.9127C219.134 65.1359 218.857 64.2227 218.857 63.2885C218.859 62.0349 219.359 60.8335 220.246 59.9479C221.133 59.0623 222.335 58.565 223.589 58.565H223.58ZM212.458 58.7827C211.87 60.2123 211.566 61.7426 211.562 63.2885C211.562 63.5816 211.629 63.858 211.646 64.1511L180.39 73.0788C179.394 71.1016 177.87 69.4386 175.987 68.2739C174.104 67.1091 171.935 66.488 169.721 66.4793C169.361 66.4793 169.009 66.5631 168.657 66.5882L164.294 44.227C167.243 43.7598 169.911 42.2064 171.773 39.872L212.458 58.7827ZM162.418 27.6612C163.352 27.6612 164.264 27.938 165.041 28.4567C165.818 28.9753 166.423 29.7126 166.781 30.5752C167.139 31.4378 167.233 32.3871 167.051 33.3031C166.869 34.2192 166.42 35.0608 165.761 35.7218C165.101 36.3827 164.26 36.8332 163.344 37.0164C162.429 37.1996 161.479 37.1073 160.616 36.7511C159.753 36.3948 159.014 35.7907 158.494 35.015C157.974 34.2394 157.696 33.3269 157.694 32.3931C157.694 31.1396 158.192 29.9373 159.077 29.0501C159.963 28.1629 161.164 27.6634 162.418 27.6612ZM151.664 37.6442C152.466 39.2954 153.634 40.7416 155.079 41.8723C156.525 43.003 158.21 43.7884 160.006 44.1683L164.595 67.6602C162.861 68.4897 161.351 69.7215 160.19 71.2531L126.313 53.5316C127.388 50.9278 127.456 48.0175 126.506 45.366L151.664 37.6442ZM115.149 44.4112C116.083 44.4112 116.996 44.688 117.773 45.2067C118.549 45.7253 119.155 46.4626 119.512 47.3252C119.87 48.1878 119.964 49.1371 119.783 50.0531C119.601 50.9692 119.152 51.8108 118.492 52.4718C117.832 53.1327 116.992 53.5832 116.076 53.7664C115.16 53.9496 114.211 53.8573 113.347 53.5011C112.484 53.1448 111.746 52.5407 111.226 51.765C110.706 50.9894 110.427 50.0769 110.426 49.1431C110.426 47.8896 110.923 46.6873 111.809 45.8001C112.694 44.9129 113.896 44.4134 115.149 44.4112ZM114.814 61.1277L122.77 89.5357C120.471 90.4452 118.507 92.0384 117.142 94.1001L85.3258 85.9847L85.351 85.7921C85.337 83.053 84.3786 80.4026 82.6375 78.2881L106.288 57.1915C107.369 58.3886 108.681 59.3546 110.144 60.0311C111.608 60.7076 113.194 61.0806 114.806 61.1277H114.814ZM74.564 124.669C74.564 125.603 74.2869 126.516 73.7679 127.293C73.2489 128.07 72.5112 128.675 71.6481 129.033C70.785 129.39 69.8352 129.484 68.919 129.302C68.0027 129.119 67.161 128.669 66.5005 128.009C65.8399 127.348 65.39 126.507 65.2077 125.59C65.0255 124.674 65.119 123.724 65.4765 122.861C65.834 121.998 66.4395 121.26 67.2162 120.741C67.993 120.222 68.9063 119.945 69.8405 119.945C71.0925 119.948 72.2927 120.446 73.178 121.331C74.0634 122.217 74.5618 123.417 74.564 124.669ZM72.3027 112.902L73.8856 97.76C76.2082 97.6507 78.4491 96.8691 80.3358 95.5102C82.2226 94.1513 83.6739 92.2735 84.5135 90.1052L115.484 98.0028C115.086 99.582 115.046 101.23 115.367 102.827L78.9943 116.981C77.2805 114.911 74.9208 113.478 72.2943 112.91L72.3027 112.902ZM73.3245 81.0602C74.2583 81.0602 75.1712 81.337 75.9478 81.8557C76.7244 82.3743 77.3299 83.1116 77.6876 83.9742C78.0454 84.8368 78.1394 85.7861 77.9578 86.7021C77.7762 87.6182 77.3272 88.4598 76.6674 89.1208C76.0077 89.7817 75.1668 90.2322 74.2511 90.4154C73.3354 90.5986 72.3859 90.5063 71.5227 90.15C70.6594 89.7938 69.9211 89.1897 69.4011 88.414C68.8811 87.6384 68.6026 86.7259 68.601 85.7921C68.601 84.5386 69.0984 83.3363 69.9839 82.4491C70.8695 81.5619 72.071 81.0624 73.3245 81.0602ZM80.1668 130.724C81.0838 129.23 81.6466 127.546 81.8121 125.801C81.9776 124.056 81.7414 122.297 81.1216 120.657L116.849 106.755C117.658 108.136 118.735 109.342 120.016 110.301C121.298 111.261 122.758 111.954 124.311 112.341L108.692 133.973C107.91 131.649 106.432 129.621 104.459 128.165C102.486 126.708 100.113 125.892 97.6619 125.828C95.2103 125.764 92.7982 126.455 90.7521 127.807C88.706 129.159 87.1246 131.107 86.222 133.387L80.1668 130.724ZM97.3691 142.575C96.4356 142.573 95.5235 142.295 94.748 141.775C93.9725 141.255 93.3684 140.518 93.0119 139.655C92.6555 138.792 92.5626 137.843 92.7451 136.928C92.9277 136.012 93.3774 135.171 94.0375 134.511C94.6975 133.851 95.5384 133.401 96.4539 133.219C97.3694 133.036 98.3184 133.129 99.1812 133.486C100.044 133.842 100.782 134.446 101.301 135.222C101.821 135.997 102.099 136.909 102.101 137.843C102.101 139.098 101.602 140.301 100.715 141.189C99.8276 142.076 98.6241 142.575 97.3691 142.575ZM125.903 114.887L127.402 124.954C124.886 125.51 122.616 126.861 120.927 128.806C119.238 130.752 118.22 133.189 118.022 135.757H112.159L125.903 114.887ZM175.449 135.28C174.516 135.278 173.604 135 172.828 134.48C172.053 133.961 171.449 133.223 171.092 132.36C170.736 131.497 170.643 130.548 170.825 129.633C171.008 128.717 171.457 127.877 172.118 127.216C172.778 126.556 173.619 126.107 174.534 125.924C175.45 125.742 176.399 125.834 177.261 126.191C178.124 126.547 178.862 127.152 179.382 127.927C179.901 128.702 180.179 129.615 180.181 130.548C180.181 131.803 179.683 133.007 178.795 133.894C177.908 134.781 176.704 135.28 175.449 135.28ZM228.823 183.813C227.889 183.813 226.976 183.536 226.199 183.017C225.422 182.498 224.817 181.76 224.459 180.897C224.102 180.034 224.008 179.084 224.19 178.168C224.373 177.252 224.822 176.41 225.483 175.75C226.144 175.089 226.985 174.639 227.902 174.457C228.818 174.275 229.768 174.368 230.631 174.726C231.494 175.083 232.232 175.689 232.751 176.465C233.27 177.242 233.547 178.155 233.547 179.09C233.544 180.342 233.046 181.542 232.161 182.427C231.275 183.312 230.075 183.811 228.823 183.813ZM228.823 167.063C227.226 167.063 225.646 167.383 224.175 168.003C222.703 168.622 221.371 169.53 220.255 170.673C211.339 157.017 199.239 145.73 184.997 137.784C185.694 136.87 186.255 135.86 186.663 134.786L211.981 140.841C212.631 143.357 214.079 145.593 216.109 147.215C218.139 148.837 220.64 149.757 223.237 149.836C224.278 155.97 226.481 161.848 229.728 167.155C229.418 167.13 229.133 167.071 228.823 167.071V167.063ZM223.58 142.575C222.646 142.575 221.734 142.298 220.957 141.779C220.18 141.26 219.575 140.523 219.217 139.661C218.859 138.798 218.765 137.849 218.947 136.933C219.129 136.017 219.578 135.175 220.237 134.514C220.897 133.853 221.738 133.403 222.654 133.219C223.569 133.036 224.519 133.129 225.382 133.485C226.245 133.841 226.984 134.445 227.504 135.221C228.024 135.996 228.302 136.909 228.304 137.843C228.304 139.096 227.806 140.299 226.921 141.186C226.035 142.073 224.834 142.572 223.58 142.575ZM227.299 126.469C224.948 125.618 222.375 125.601 220.013 126.419L209.552 110.272C211.669 108.681 213.2 106.434 213.907 103.882H224.066C224.574 105.714 225.509 107.4 226.794 108.8C228.08 110.201 229.679 111.277 231.461 111.939L227.299 126.469Z" fill="white"/>
</svg>
