<svg width="375" height="370" viewBox="0 0 375 370" fill="none" xmlns="http://www.w3.org/2000/svg">
<path d="M62.5923 287.527C87.0298 263.089 89.4735 256.98 104.747 272.253C120.02 287.527 113.911 289.36 89.4735 314.408C71.1454 332.736 47.9298 329.071 47.9298 329.071C47.9298 329.071 44.2642 305.855 62.5923 287.527Z" fill="black" fill-opacity="0.1"/>
<path d="M109.023 312.575C118.798 286.916 121.853 283.861 107.802 275.919C93.75 267.977 93.75 273.475 84.586 299.135C77.2547 318.074 85.8079 335.18 85.8079 335.18C85.8079 335.18 102.303 332.125 109.023 312.575Z" fill="black" fill-opacity="0.1"/>
<path d="M94.9718 288.749C100.47 274.697 100.47 271.643 107.801 275.919C115.744 280.196 113.911 282.028 108.412 296.08C104.747 306.466 95.5827 308.91 95.5827 308.91C95.5827 308.91 91.3061 299.746 94.9718 288.749Z" fill="black" fill-opacity="0.1"/>
<path d="M100.47 269.199C92.5281 255.147 89.4734 258.202 63.814 267.977C44.875 275.308 41.2094 291.192 41.2094 291.192C41.2094 291.192 58.3156 299.746 77.2547 292.414C102.914 282.639 108.412 282.639 100.47 269.199Z" fill="black" fill-opacity="0.1"/>
<path d="M87.6406 282.028C101.692 276.53 104.747 276.53 100.47 269.199C96.1937 261.256 94.3609 263.089 80.3094 268.588C69.9234 272.253 67.4797 281.417 67.4797 281.417C67.4797 281.417 77.2547 285.694 87.6406 282.028Z" fill="black" fill-opacity="0.1"/>
<path d="M80.9202 280.806C94.3609 267.366 95.5827 263.7 104.136 272.253C112.689 280.806 109.023 282.028 95.5827 295.469C85.1968 305.855 72.3671 303.411 72.3671 303.411C72.3671 303.411 71.1452 291.192 80.9202 280.806Z" fill="black" fill-opacity="0.1"/>
<path d="M109.023 222.156C71.1453 158.619 8.21875 184.889 8.21875 184.889C8.21875 184.889 98.0266 95.0815 158.509 155.564L109.023 222.156Z" fill="black" fill-opacity="0.1"/>
<path d="M138.348 175.114L157.898 155.564C98.0266 95.0815 8.21875 184.889 8.21875 184.889C8.21875 184.889 87.0297 128.683 138.348 175.114Z" fill="black" fill-opacity="0.1"/>
<path d="M154.844 267.977C218.381 305.855 192.111 368.781 192.111 368.781C192.111 368.781 281.919 278.974 221.436 218.491L154.844 267.977Z" fill="black" fill-opacity="0.1"/>
<path d="M201.886 238.652L221.436 219.102C281.919 279.584 192.111 369.392 192.111 369.392C192.111 369.392 248.317 289.97 201.886 238.652Z" fill="black" fill-opacity="0.1"/>
<path d="M294.138 178.78C222.658 249.648 143.847 288.137 116.355 260.645C88.8625 233.153 127.352 154.342 198.22 82.8625C281.308 -0.225026 373.559 3.4406 373.559 3.4406C373.559 3.4406 376.614 95.6922 294.138 178.78Z" fill="black" fill-opacity="0.1"/>
<path d="M275.809 158.619C204.941 229.488 134.072 275.919 117.577 259.423C101.081 242.928 147.513 172.059 218.381 101.191C301.469 18.1031 374.781 2.21875 374.781 2.21875C374.781 2.21875 358.897 75.5312 275.809 158.619Z" fill="black" fill-opacity="0.1"/>
<path d="M144.458 280.195C141.403 283.25 136.516 283.25 133.461 280.195L96.8047 243.539C93.75 240.484 93.75 234.986 96.8047 231.931L107.802 220.934L155.455 268.587L144.458 280.195Z" fill="black" fill-opacity="0.1"/>
<path d="M134.072 269.198C131.017 272.253 127.352 273.475 125.519 271.642L104.747 250.87C102.914 249.038 104.136 245.372 107.191 242.317L118.188 231.32L145.069 258.202L134.072 269.198Z" fill="black" fill-opacity="0.1"/>
<path d="M123.686 284.472C121.853 286.305 117.576 286.305 115.744 284.472L91.9171 260.645C90.0843 258.813 90.6953 255.147 92.5281 253.314L99.8593 245.983L131.017 277.141L123.686 284.472Z" fill="black" fill-opacity="0.1"/>
<path d="M118.798 279.584C116.966 281.417 113.3 282.028 112.078 280.806L95.5828 264.311C94.3609 263.089 94.9719 260.034 97.4156 258.202L104.747 250.87L126.13 272.253L118.798 279.584Z" fill="black" fill-opacity="0.1"/>
<path d="M373.559 3.44072C373.559 3.44072 340.569 2.21885 295.97 19.3251L357.675 81.0298C374.781 36.4313 373.559 3.44072 373.559 3.44072Z" fill="black" fill-opacity="0.1"/>
<path d="M373.559 3.44067C373.559 3.44067 347.289 8.93911 307.578 31.5438L345.456 69.4219C368.061 29.711 373.559 3.44067 373.559 3.44067Z" fill="black" fill-opacity="0.1"/>
<path d="M261.758 145.789C278.628 145.789 292.305 132.113 292.305 115.242C292.305 98.3716 278.628 84.6953 261.758 84.6953C244.887 84.6953 231.211 98.3716 231.211 115.242C231.211 132.113 244.887 145.789 261.758 145.789Z" fill="black" fill-opacity="0.1"/>
<path d="M261.758 135.403C272.892 135.403 281.919 126.377 281.919 115.242C281.919 104.108 272.892 95.0813 261.758 95.0813C250.623 95.0813 241.597 104.108 241.597 115.242C241.597 126.377 250.623 135.403 261.758 135.403Z" fill="black" fill-opacity="0.1"/>
<path d="M200.664 206.883C217.535 206.883 231.211 193.207 231.211 176.336C231.211 159.465 217.535 145.789 200.664 145.789C183.793 145.789 170.117 159.465 170.117 176.336C170.117 193.207 183.793 206.883 200.664 206.883Z" fill="black" fill-opacity="0.1"/>
<path d="M200.664 196.497C211.799 196.497 220.825 187.471 220.825 176.336C220.825 165.201 211.799 156.175 200.664 156.175C189.529 156.175 180.503 165.201 180.503 176.336C180.503 187.471 189.529 196.497 200.664 196.497Z" fill="black" fill-opacity="0.1"/>
<path d="M294.748 32.1546C292.916 33.9874 289.25 33.9874 287.417 32.1546C285.584 30.3218 285.584 26.6562 287.417 24.8233C289.25 22.9905 292.916 22.9905 294.748 24.8233C296.581 26.6562 296.581 30.3218 294.748 32.1546Z" fill="black" fill-opacity="0.1"/>
<path d="M305.134 47.4281C307.834 47.4281 310.022 45.2399 310.022 42.5406C310.022 39.8413 307.834 37.6531 305.134 37.6531C302.435 37.6531 300.247 39.8413 300.247 42.5406C300.247 45.2399 302.435 47.4281 305.134 47.4281Z" fill="black" fill-opacity="0.1"/>
<path d="M319.797 62.0904C322.496 62.0904 324.684 59.9022 324.684 57.2029C324.684 54.5036 322.496 52.3154 319.797 52.3154C317.098 52.3154 314.909 54.5036 314.909 57.2029C314.909 59.9022 317.098 62.0904 319.797 62.0904Z" fill="black" fill-opacity="0.1"/>
<path d="M333.848 76.753C336.548 76.753 338.736 74.5648 338.736 71.8655C338.736 69.1662 336.548 66.978 333.848 66.978C331.149 66.978 328.961 69.1662 328.961 71.8655C328.961 74.5648 331.149 76.753 333.848 76.753Z" fill="black" fill-opacity="0.1"/>
<path d="M348.511 90.8045C351.21 90.8045 353.398 88.6163 353.398 85.917C353.398 83.2178 351.21 81.0295 348.511 81.0295C345.812 81.0295 343.623 83.2178 343.623 85.917C343.623 88.6163 345.812 90.8045 348.511 90.8045Z" fill="black" fill-opacity="0.1"/>
<path d="M54.5923 285.527C79.0298 261.089 81.4735 254.98 96.747 270.253C112.02 285.527 105.911 287.36 81.4735 312.408C63.1454 330.736 39.9298 327.071 39.9298 327.071C39.9298 327.071 36.2642 303.855 54.5923 285.527Z" fill="#FF9D27"/>
<path d="M101.023 310.575C110.798 284.916 113.853 281.861 99.8016 273.919C85.75 265.977 85.75 271.475 76.586 297.135C69.2547 316.074 77.8079 333.18 77.8079 333.18C77.8079 333.18 94.3032 330.125 101.023 310.575Z" fill="#FF9D27"/>
<path d="M86.9718 286.749C92.4702 272.697 92.4702 269.643 99.8014 273.919C107.744 278.196 105.911 280.028 100.412 294.08C96.7468 304.466 87.5827 306.91 87.5827 306.91C87.5827 306.91 83.3061 297.746 86.9718 286.749Z" fill="#FDF516"/>
<path d="M92.4703 267.199C84.5281 253.147 81.4734 256.202 55.814 265.977C36.875 273.308 33.2094 289.192 33.2094 289.192C33.2094 289.192 50.3156 297.746 69.2547 290.414C94.914 280.639 100.412 280.639 92.4703 267.199Z" fill="#FF9D27"/>
<path d="M79.6406 280.028C93.6922 274.53 96.7469 274.53 92.4703 267.199C88.1937 259.256 86.3609 261.089 72.3094 266.588C61.9234 270.253 59.4797 279.417 59.4797 279.417C59.4797 279.417 69.2547 283.694 79.6406 280.028Z" fill="#FDF516"/>
<path d="M72.9202 278.806C86.3609 265.366 87.5827 261.7 96.1359 270.253C104.689 278.806 101.023 280.028 87.5827 293.469C77.1968 303.855 64.3671 301.411 64.3671 301.411C64.3671 301.411 63.1452 289.192 72.9202 278.806Z" fill="#FDF516"/>
<path d="M101.023 220.156C63.1453 156.619 0.21875 182.889 0.21875 182.889C0.21875 182.889 90.0266 93.0815 150.509 153.564L101.023 220.156Z" fill="#3BAACF"/>
<path d="M130.348 173.114L149.898 153.564C90.0266 93.0815 0.21875 182.889 0.21875 182.889C0.21875 182.889 79.0297 126.683 130.348 173.114Z" fill="#428BC1"/>
<path d="M146.844 265.977C210.381 303.855 184.111 366.781 184.111 366.781C184.111 366.781 273.919 276.974 213.436 216.491L146.844 265.977Z" fill="#3BAACF"/>
<path d="M193.886 236.652L213.436 217.102C273.919 277.584 184.111 367.392 184.111 367.392C184.111 367.392 240.317 287.97 193.886 236.652Z" fill="#428BC1"/>
<path d="M286.138 176.78C214.658 247.648 135.847 286.137 108.355 258.645C80.8625 231.153 119.352 152.342 190.22 80.8625C273.308 -2.22503 365.559 1.4406 365.559 1.4406C365.559 1.4406 368.614 93.6922 286.138 176.78Z" fill="#C5D0D8"/>
<path d="M267.809 156.619C196.941 227.488 126.072 273.919 109.577 257.423C93.0812 240.928 139.513 170.059 210.381 99.1906C293.469 16.1031 366.781 0.21875 366.781 0.21875C366.781 0.21875 350.897 73.5312 267.809 156.619Z" fill="#DAE3EA"/>
<path d="M136.458 278.195C133.403 281.25 128.516 281.25 125.461 278.195L88.8047 241.539C85.75 238.484 85.75 232.986 88.8047 229.931L99.8016 218.934L147.455 266.587L136.458 278.195Z" fill="#C94747"/>
<path d="M126.072 267.198C123.017 270.253 119.352 271.475 117.519 269.642L96.7469 248.87C94.9141 247.038 96.136 243.372 99.1907 240.317L110.188 229.32L137.069 256.202L126.072 267.198Z" fill="#F15744"/>
<path d="M115.686 282.472C113.853 284.305 109.576 284.305 107.744 282.472L83.9171 258.645C82.0843 256.813 82.6953 253.147 84.5281 251.314L91.8593 243.983L123.017 275.141L115.686 282.472Z" fill="#3E4347"/>
<path d="M110.798 277.584C108.966 279.417 105.3 280.028 104.078 278.806L87.5828 262.311C86.3609 261.089 86.9719 258.034 89.4156 256.202L96.7469 248.87L118.13 270.253L110.798 277.584Z" fill="#62727A"/>
<path d="M365.559 1.44072C365.559 1.44072 332.569 0.218849 287.97 17.3251L349.675 79.0298C366.781 34.4313 365.559 1.44072 365.559 1.44072Z" fill="#C94747"/>
<path d="M365.559 1.44067C365.559 1.44067 339.289 6.93911 299.578 29.5438L337.456 67.4219C360.061 27.711 365.559 1.44067 365.559 1.44067Z" fill="#F15744"/>
<path d="M253.758 143.789C270.628 143.789 284.305 130.113 284.305 113.242C284.305 96.3716 270.628 82.6953 253.758 82.6953C236.887 82.6953 223.211 96.3716 223.211 113.242C223.211 130.113 236.887 143.789 253.758 143.789Z" fill="#EDF4F9"/>
<path d="M253.758 133.403C264.892 133.403 273.919 124.377 273.919 113.242C273.919 102.108 264.892 93.0813 253.758 93.0813C242.623 93.0813 233.597 102.108 233.597 113.242C233.597 124.377 242.623 133.403 253.758 133.403Z" fill="#3BAACF"/>
<path d="M192.664 204.883C209.535 204.883 223.211 191.207 223.211 174.336C223.211 157.465 209.535 143.789 192.664 143.789C175.793 143.789 162.117 157.465 162.117 174.336C162.117 191.207 175.793 204.883 192.664 204.883Z" fill="#EDF4F9"/>
<path d="M192.664 194.497C203.799 194.497 212.825 185.471 212.825 174.336C212.825 163.201 203.799 154.175 192.664 154.175C181.529 154.175 172.503 163.201 172.503 174.336C172.503 185.471 181.529 194.497 192.664 194.497Z" fill="#3BAACF"/>
<path d="M286.748 30.1546C284.916 31.9874 281.25 31.9874 279.417 30.1546C277.584 28.3218 277.584 24.6562 279.417 22.8233C281.25 20.9905 284.916 20.9905 286.748 22.8233C288.581 24.6562 288.581 28.3218 286.748 30.1546Z" fill="white"/>
<path d="M297.134 45.4281C299.834 45.4281 302.022 43.2399 302.022 40.5406C302.022 37.8413 299.834 35.6531 297.134 35.6531C294.435 35.6531 292.247 37.8413 292.247 40.5406C292.247 43.2399 294.435 45.4281 297.134 45.4281Z" fill="white"/>
<path d="M311.797 60.0904C314.496 60.0904 316.684 57.9022 316.684 55.2029C316.684 52.5036 314.496 50.3154 311.797 50.3154C309.098 50.3154 306.909 52.5036 306.909 55.2029C306.909 57.9022 309.098 60.0904 311.797 60.0904Z" fill="white"/>
<path d="M325.848 74.753C328.548 74.753 330.736 72.5648 330.736 69.8655C330.736 67.1662 328.548 64.978 325.848 64.978C323.149 64.978 320.961 67.1662 320.961 69.8655C320.961 72.5648 323.149 74.753 325.848 74.753Z" fill="white"/>
<path d="M340.511 88.8045C343.21 88.8045 345.398 86.6163 345.398 83.917C345.398 81.2178 343.21 79.0295 340.511 79.0295C337.812 79.0295 335.623 81.2178 335.623 83.917C335.623 86.6163 337.812 88.8045 340.511 88.8045Z" fill="white"/>
</svg>
