<svg width="29" height="27" viewBox="0 0 29 27" fill="none" xmlns="http://www.w3.org/2000/svg">
<path d="M27.3333 11.9832C27.643 11.7525 27.8728 11.4306 27.9903 11.0627C28.1079 10.6949 28.1074 10.2994 27.9888 9.93182C27.8703 9.56425 27.6397 9.243 27.3293 9.0131C27.019 8.78321 26.6445 8.65621 26.2583 8.6499L18.7583 8.36656C18.7214 8.36402 18.6861 8.35087 18.6565 8.32869C18.627 8.30651 18.6044 8.27625 18.5917 8.24156L16 1.24157C15.8698 0.885432 15.6333 0.577913 15.3225 0.360645C15.0117 0.143377 14.6417 0.0268555 14.2625 0.0268555C13.8833 0.0268555 13.5133 0.143377 13.2025 0.360645C12.8917 0.577913 12.6552 0.885432 12.525 1.24157L9.94166 8.26656C9.92889 8.30125 9.90636 8.33151 9.87679 8.35369C9.84722 8.37586 9.81186 8.38902 9.77499 8.39157L2.27499 8.6749C1.88883 8.68121 1.51432 8.80821 1.20398 9.0381C0.893647 9.268 0.66304 9.58925 0.544498 9.95683C0.425956 10.3244 0.425424 10.7199 0.542977 11.0877C0.660529 11.4556 0.890272 11.7775 1.19999 12.0082L7.08332 16.6332C7.11277 16.6564 7.13477 16.6877 7.14662 16.7232C7.15847 16.7588 7.15964 16.797 7.14999 16.8332L5.12499 24.0082C5.02005 24.3736 5.03022 24.7624 5.1541 25.1218C5.27799 25.4812 5.50958 25.7937 5.81736 26.0168C6.12515 26.2399 6.49419 26.3628 6.87428 26.3687C7.25438 26.3746 7.62707 26.2633 7.94166 26.0499L14.1583 21.8832C14.1889 21.8621 14.2253 21.8508 14.2625 21.8508C14.2997 21.8508 14.336 21.8621 14.3667 21.8832L20.5833 26.0499C20.8937 26.2706 21.265 26.3892 21.6458 26.3892C22.0266 26.3892 22.398 26.2706 22.7083 26.0499C23.0162 25.8289 23.248 25.5179 23.3719 25.1598C23.4957 24.8016 23.5056 24.4139 23.4 24.0499L21.3583 16.8499C21.3475 16.8138 21.3481 16.7752 21.36 16.7394C21.372 16.7036 21.3946 16.6723 21.425 16.6499L27.3333 11.9832Z" fill="#3BAACF"/>
</svg>
