<svg width="29" height="27" viewBox="0 0 29 27" fill="none" xmlns="http://www.w3.org/2000/svg">
<path d="M27.3333 11.9832C27.643 11.7525 27.8728 11.4306 27.9903 11.0627C28.1079 10.6949 28.1074 10.2994 27.9888 9.93182C27.8703 9.56425 27.6397 9.243 27.3293 9.0131C27.019 8.78321 26.6445 8.65621 26.2583 8.6499L18.7583 8.36656C18.7214 8.36402 18.6861 8.35087 18.6565 8.32869C18.627 8.30651 18.6044 8.27625 18.5917 8.24156L16 1.24157C15.8698 0.885432 15.6333 0.577913 15.3225 0.360645C15.0117 0.143377 14.6417 0.0268555 14.2625 0.0268555C13.8833 0.0268555 13.5133 0.143377 13.2025 0.360645C12.8917 0.577913 12.6552 0.885432 12.525 1.24157L9.94166 8.26656C9.92889 8.30125 9.90636 8.33151 9.87679 8.35369C9.84722 8.37586 9.81186 8.38902 9.77499 8.39157L2.27499 8.6749C1.88883 8.68121 1.51432 8.80821 1.20398 9.0381C0.893647 9.268 0.66304 9.58925 0.544498 9.95683C0.425956 10.3244 0.425424 10.7199 0.542977 11.0877C0.660529 11.4556 0.890272 11.7775 1.19999 12.0082L7.08332 16.6332C7.11277 16.6564 7.13477 16.6877 7.14662 16.7232C7.15847 16.7588 7.15964 16.797 7.14999 16.8332L5.12499 24.0082C5.02005 24.3736 5.03022 24.7624 5.1541 25.1218C5.27799 25.4812 5.50958 25.7937 5.81736 26.0168C6.12515 26.2399 6.49419 26.3628 6.87428 26.3687C7.25438 26.3746 7.62707 26.2633 7.94166 26.0499L14.1583 21.8832C14.1889 21.8621 14.2253 21.8508 14.2625 21.8508C14.2997 21.8508 14.336 21.8621 14.3667 21.8832L20.5833 26.0499C20.8937 26.2706 21.265 26.3892 21.6458 26.3892C22.0266 26.3892 22.398 26.2706 22.7083 26.0499C23.0162 25.8289 23.248 25.5179 23.3719 25.1598C23.4957 24.8016 23.5056 24.4139 23.4 24.0499L21.3583 16.8499C21.3475 16.8138 21.3481 16.7752 21.36 16.7394C21.372 16.7036 21.3946 16.6723 21.425 16.6499L27.3333 11.9832ZM19.75 17.2582L21.7917 24.4582C21.8083 24.4967 21.8112 24.5397 21.8 24.5801C21.7888 24.6205 21.764 24.6558 21.7299 24.6801C21.6958 24.7045 21.6544 24.7164 21.6126 24.714C21.5707 24.7115 21.531 24.6948 21.5 24.6666L15.2833 20.4999C14.9783 20.2934 14.6184 20.1831 14.25 20.1832V1.6999C14.2892 1.69671 14.3283 1.70752 14.3603 1.7304C14.3924 1.75328 14.4153 1.78675 14.425 1.8249L17.0167 8.83323C17.1422 9.17864 17.3678 9.47883 17.6646 9.69552C17.9614 9.91221 18.3161 10.0356 18.6833 10.0499L26.1833 10.3332C26.2225 10.3326 26.2609 10.3446 26.2928 10.3674C26.3248 10.3901 26.3485 10.4226 26.3606 10.4599C26.3728 10.4972 26.3726 10.5374 26.3602 10.5746C26.3478 10.6118 26.3237 10.644 26.2917 10.6666L20.4083 15.2916C20.1138 15.5153 19.8934 15.8226 19.776 16.1734C19.6586 16.5242 19.6495 16.9022 19.75 17.2582Z" fill="#3BAACF"/>
</svg>
